<svg xmlns="http://www.w3.org/2000/svg" viewBox="0 0 64 64" width="64" height="64" role="img" aria-labelledby="title desc">
  <title id="title">Agave</title>
  <desc id="desc">Spiky agave or large succulent icon.</desc>
  <metadata>{"title": "Agave", "tags": ["agave", "succulent", "desert", "plant", "waterwise"]}</metadata>
  <defs>
    <filter id="softShadow" x="-20%" y="-20%" width="140%" height="140%">
      <feDropShadow dx="0" dy="1.25" stdDeviation="1.25" flood-color="#000000" flood-opacity="0.28"/>
    </filter>
  </defs>
  <g filter="url(#softShadow)" stroke-linecap="round" stroke-linejoin="round">
<path d="M32 32 L56.0 32.0 L38.9 33.2 Z" fill="#8ED1C6" stroke="#1F2937" stroke-width="1.4" stroke-linecap="round" stroke-linejoin="round"/>
<path d="M32 32 L50.4 47.4 L36.5 37.4 Z" fill="#8ED1C6" stroke="#1F2937" stroke-width="1.4" stroke-linecap="round" stroke-linejoin="round"/>
<path d="M32 32 L36.2 55.6 L32.0 39.0 Z" fill="#8ED1C6" stroke="#1F2937" stroke-width="1.4" stroke-linecap="round" stroke-linejoin="round"/>
<path d="M32 32 L20.0 52.8 L27.5 37.4 Z" fill="#8ED1C6" stroke="#1F2937" stroke-width="1.4" stroke-linecap="round" stroke-linejoin="round"/>
<path d="M32 32 L9.4 40.2 L25.1 33.2 Z" fill="#8ED1C6" stroke="#1F2937" stroke-width="1.4" stroke-linecap="round" stroke-linejoin="round"/>
<path d="M32 32 L9.4 23.8 L25.9 28.5 Z" fill="#8ED1C6" stroke="#1F2937" stroke-width="1.4" stroke-linecap="round" stroke-linejoin="round"/>
<path d="M32 32 L20.0 11.2 L29.6 25.4 Z" fill="#8ED1C6" stroke="#1F2937" stroke-width="1.4" stroke-linecap="round" stroke-linejoin="round"/>
<path d="M32 32 L36.2 8.4 L34.4 25.4 Z" fill="#8ED1C6" stroke="#1F2937" stroke-width="1.4" stroke-linecap="round" stroke-linejoin="round"/>
<path d="M32 32 L50.4 16.6 L38.1 28.5 Z" fill="#8ED1C6" stroke="#1F2937" stroke-width="1.4" stroke-linecap="round" stroke-linejoin="round"/>
<circle cx="32" cy="32" r="4" fill="#4DB6AC" stroke="#1F2937" stroke-width="1.2"/>
  </g>
</svg>
