<svg xmlns="http://www.w3.org/2000/svg" viewBox="0 0 64 64" width="64" height="64" role="img" aria-labelledby="title desc">
  <title id="title">Cactus</title>
  <desc id="desc">Saguaro-style cactus for desert landscape stamps.</desc>
  <metadata>{"title": "Cactus", "tags": ["cactus", "desert", "plant", "waterwise"]}</metadata>
  <defs>
    <filter id="softShadow" x="-20%" y="-20%" width="140%" height="140%">
      <feDropShadow dx="0" dy="1.25" stdDeviation="1.25" flood-color="#000000" flood-opacity="0.28"/>
    </filter>
  </defs>
  <g filter="url(#softShadow)" stroke-linecap="round" stroke-linejoin="round">
<path d="M32 52 V18 C32 12 42 12 42 18 V28 M42 28 C48 28 50 23 50 18 M32 34 C24 34 22 28 22 22" fill="none" stroke="#FFFFFF" stroke-width="8" stroke-linecap="round" stroke-linejoin="round"/>
<path d="M32 52 V18 C32 12 42 12 42 18 V28 M42 28 C48 28 50 23 50 18 M32 34 C24 34 22 28 22 22" fill="none" stroke="#2F855A" stroke-width="5" stroke-linecap="round" stroke-linejoin="round"/>
<line x1="31" y1="22" x2="35" y2="22" stroke="#1F2937" stroke-width="1" stroke-linecap="round"/>
<line x1="31" y1="28" x2="35" y2="28" stroke="#1F2937" stroke-width="1" stroke-linecap="round"/>
<line x1="31" y1="34" x2="35" y2="34" stroke="#1F2937" stroke-width="1" stroke-linecap="round"/>
<line x1="31" y1="40" x2="35" y2="40" stroke="#1F2937" stroke-width="1" stroke-linecap="round"/>
<line x1="31" y1="46" x2="35" y2="46" stroke="#1F2937" stroke-width="1" stroke-linecap="round"/>
<ellipse cx="32" cy="53" rx="17" ry="5" fill="#C2B280" stroke="#1F2937" stroke-width="1.3"/>
  </g>
</svg>
