<svg xmlns="http://www.w3.org/2000/svg" viewBox="0 0 64 64" width="64" height="64" role="img" aria-labelledby="title desc">
  <title id="title">Ornamental tree</title>
  <desc id="desc">Small ornamental or accent tree shown with a radial leafy crown.</desc>
  <metadata>{"title": "Ornamental tree", "tags": ["tree", "ornamental", "accent", "plant"]}</metadata>
  <defs>
    <filter id="softShadow" x="-20%" y="-20%" width="140%" height="140%">
      <feDropShadow dx="0" dy="1.25" stdDeviation="1.25" flood-color="#000000" flood-opacity="0.28"/>
    </filter>
  </defs>
  <g filter="url(#softShadow)" stroke-linecap="round" stroke-linejoin="round">
<ellipse cx="43.0" cy="30.0" rx="8" ry="5" fill="#9AD17C" stroke="#1F2937" stroke-width="2.2" transform="rotate(0 43.0 30.0)"/>
<ellipse cx="39.8" cy="37.8" rx="8" ry="5" fill="#9AD17C" stroke="#1F2937" stroke-width="2.2" transform="rotate(45 39.8 37.8)"/>
<ellipse cx="32.0" cy="41.0" rx="8" ry="5" fill="#9AD17C" stroke="#1F2937" stroke-width="2.2" transform="rotate(90 32.0 41.0)"/>
<ellipse cx="24.2" cy="37.8" rx="8" ry="5" fill="#9AD17C" stroke="#1F2937" stroke-width="2.2" transform="rotate(135 24.2 37.8)"/>
<ellipse cx="21.0" cy="30.0" rx="8" ry="5" fill="#9AD17C" stroke="#1F2937" stroke-width="2.2" transform="rotate(180 21.0 30.0)"/>
<ellipse cx="24.2" cy="22.2" rx="8" ry="5" fill="#9AD17C" stroke="#1F2937" stroke-width="2.2" transform="rotate(225 24.2 22.2)"/>
<ellipse cx="32.0" cy="19.0" rx="8" ry="5" fill="#9AD17C" stroke="#1F2937" stroke-width="2.2" transform="rotate(270 32.0 19.0)"/>
<ellipse cx="39.8" cy="22.2" rx="8" ry="5" fill="#9AD17C" stroke="#1F2937" stroke-width="2.2" transform="rotate(315 39.8 22.2)"/>
<circle cx="32" cy="30" r="7" fill="#6CB85A" stroke="#1F2937" stroke-width="2.2"/>
<rect x="29" y="42" width="6" height="9" rx="2" fill="#8B5E34" stroke="#1F2937" stroke-width="2.2"/>
  </g>
</svg>
