<svg xmlns="http://www.w3.org/2000/svg" viewBox="0 0 64 64" width="64" height="64" role="img" aria-labelledby="title desc">
  <title id="title">Palm</title>
  <desc id="desc">Palm tree with curved trunk and radiating fronds.</desc>
  <metadata>{"title": "Palm", "tags": ["palm", "tree", "tropical", "plant"]}</metadata>
  <defs>
    <filter id="softShadow" x="-20%" y="-20%" width="140%" height="140%">
      <feDropShadow dx="0" dy="1.25" stdDeviation="1.25" flood-color="#000000" flood-opacity="0.28"/>
    </filter>
  </defs>
  <g filter="url(#softShadow)" stroke-linecap="round" stroke-linejoin="round">
<path d="M31 51 C35 42 36 31 32 22" fill="none" stroke="#FFFFFF" stroke-width="6" stroke-linecap="round" stroke-linejoin="round"/>
<path d="M31 51 C35 42 36 31 32 22" fill="none" stroke="#8B5E34" stroke-width="4" stroke-linecap="round" stroke-linejoin="round"/>
<path d="M32 22 Q34.8 6.8 37.7 5.5" fill="none" stroke="#FFFFFF" stroke-width="5" stroke-linecap="round" stroke-linejoin="round"/>
<path d="M32 22 Q34.8 6.8 37.7 5.5" fill="none" stroke="#2F855A" stroke-width="2.6" stroke-linecap="round" stroke-linejoin="round"/>
<path d="M32 22 Q39.8 8.7 47.6 9.4" fill="none" stroke="#FFFFFF" stroke-width="5" stroke-linecap="round" stroke-linejoin="round"/>
<path d="M32 22 Q39.8 8.7 47.6 9.4" fill="none" stroke="#2F855A" stroke-width="2.6" stroke-linecap="round" stroke-linejoin="round"/>
<path d="M32 22 Q42.6 12.1 53.3 16.1" fill="none" stroke="#FFFFFF" stroke-width="5" stroke-linecap="round" stroke-linejoin="round"/>
<path d="M32 22 Q42.6 12.1 53.3 16.1" fill="none" stroke="#2F855A" stroke-width="2.6" stroke-linecap="round" stroke-linejoin="round"/>
<path d="M32 22 Q42.6 15.9 53.3 23.9" fill="none" stroke="#FFFFFF" stroke-width="5" stroke-linecap="round" stroke-linejoin="round"/>
<path d="M32 22 Q42.6 15.9 53.3 23.9" fill="none" stroke="#2F855A" stroke-width="2.6" stroke-linecap="round" stroke-linejoin="round"/>
<path d="M32 22 Q39.8 19.3 47.6 30.6" fill="none" stroke="#FFFFFF" stroke-width="5" stroke-linecap="round" stroke-linejoin="round"/>
<path d="M32 22 Q39.8 19.3 47.6 30.6" fill="none" stroke="#2F855A" stroke-width="2.6" stroke-linecap="round" stroke-linejoin="round"/>
<path d="M32 22 Q34.8 21.2 37.7 34.5" fill="none" stroke="#FFFFFF" stroke-width="5" stroke-linecap="round" stroke-linejoin="round"/>
<path d="M32 22 Q34.8 21.2 37.7 34.5" fill="none" stroke="#2F855A" stroke-width="2.6" stroke-linecap="round" stroke-linejoin="round"/>
<path d="M32 22 Q29.2 21.2 26.3 34.5" fill="none" stroke="#FFFFFF" stroke-width="5" stroke-linecap="round" stroke-linejoin="round"/>
<path d="M32 22 Q29.2 21.2 26.3 34.5" fill="none" stroke="#2F855A" stroke-width="2.6" stroke-linecap="round" stroke-linejoin="round"/>
<path d="M32 22 Q24.2 19.3 16.4 30.6" fill="none" stroke="#FFFFFF" stroke-width="5" stroke-linecap="round" stroke-linejoin="round"/>
<path d="M32 22 Q24.2 19.3 16.4 30.6" fill="none" stroke="#2F855A" stroke-width="2.6" stroke-linecap="round" stroke-linejoin="round"/>
<circle cx="32" cy="22" r="3" fill="#5B8C54" stroke="#1F2937" stroke-width="2.2"/>
  </g>
</svg>
