<svg xmlns="http://www.w3.org/2000/svg" viewBox="0 0 64 64" width="64" height="64" role="img" aria-labelledby="title desc">
  <title id="title">Potted plant</title>
  <desc id="desc">Container or potted plant icon.</desc>
  <metadata>{"title": "Potted plant", "tags": ["pot", "container", "plant"]}</metadata>
  <defs>
    <filter id="softShadow" x="-20%" y="-20%" width="140%" height="140%">
      <feDropShadow dx="0" dy="1.25" stdDeviation="1.25" flood-color="#000000" flood-opacity="0.28"/>
    </filter>
  </defs>
  <g filter="url(#softShadow)" stroke-linecap="round" stroke-linejoin="round">
<rect x="21" y="36" width="22" height="16" rx="4" fill="#C56A3A" stroke="#1F2937" stroke-width="2.2"/>
<path d="M24 36 H40 L37 52 H27 Z" fill="#C56A3A" stroke="#1F2937" stroke-width="0" stroke-linecap="round" stroke-linejoin="round"/>
<path d="M32 36 C24 29 22 22 26 17 C31 22 33 29 32 36" fill="#75B76D" stroke="#1F2937" stroke-width="1.5" stroke-linecap="round" stroke-linejoin="round"/>
<path d="M32 36 C40 29 42 22 38 17 C33 22 31 29 32 36" fill="#84CC7A" stroke="#1F2937" stroke-width="1.5" stroke-linecap="round" stroke-linejoin="round"/>
<path d="M32 36 C31 27 32 20 32 13" fill="none" stroke="#4B8A3F" stroke-width="2.2" stroke-linecap="round" stroke-linejoin="round"/>
<ellipse cx="32" cy="13" rx="6" ry="4" fill="#84CC7A" stroke="#1F2937" stroke-width="1.2" transform="rotate(12 32 13)"/>
  </g>
</svg>
