<svg xmlns="http://www.w3.org/2000/svg" viewBox="0 0 64 64" width="64" height="64" role="img" aria-labelledby="title desc">
  <title id="title">Succulent rosette</title>
  <desc id="desc">Top-down succulent rosette with layered leaves.</desc>
  <metadata>{"title": "Succulent rosette", "tags": ["succulent", "rosette", "plant", "waterwise"]}</metadata>
  <defs>
    <filter id="softShadow" x="-20%" y="-20%" width="140%" height="140%">
      <feDropShadow dx="0" dy="1.25" stdDeviation="1.25" flood-color="#000000" flood-opacity="0.28"/>
    </filter>
  </defs>
  <g filter="url(#softShadow)" stroke-linecap="round" stroke-linejoin="round">
<ellipse cx="32" cy="32" rx="7" ry="20" fill="#7DD3C7" stroke="#1F2937" stroke-width="1.4" transform="rotate(0 32 32)"/>
<ellipse cx="32" cy="32" rx="7" ry="20" fill="#7DD3C7" stroke="#1F2937" stroke-width="1.4" transform="rotate(30 32 32)"/>
<ellipse cx="32" cy="32" rx="7" ry="20" fill="#7DD3C7" stroke="#1F2937" stroke-width="1.4" transform="rotate(60 32 32)"/>
<ellipse cx="32" cy="32" rx="7" ry="20" fill="#7DD3C7" stroke="#1F2937" stroke-width="1.4" transform="rotate(90 32 32)"/>
<ellipse cx="32" cy="32" rx="7" ry="20" fill="#7DD3C7" stroke="#1F2937" stroke-width="1.4" transform="rotate(120 32 32)"/>
<ellipse cx="32" cy="32" rx="7" ry="20" fill="#7DD3C7" stroke="#1F2937" stroke-width="1.4" transform="rotate(150 32 32)"/>
<ellipse cx="32" cy="32" rx="7" ry="20" fill="#7DD3C7" stroke="#1F2937" stroke-width="1.4" transform="rotate(180 32 32)"/>
<ellipse cx="32" cy="32" rx="7" ry="20" fill="#7DD3C7" stroke="#1F2937" stroke-width="1.4" transform="rotate(210 32 32)"/>
<ellipse cx="32" cy="32" rx="7" ry="20" fill="#7DD3C7" stroke="#1F2937" stroke-width="1.4" transform="rotate(240 32 32)"/>
<ellipse cx="32" cy="32" rx="7" ry="20" fill="#7DD3C7" stroke="#1F2937" stroke-width="1.4" transform="rotate(270 32 32)"/>
<ellipse cx="32" cy="32" rx="7" ry="20" fill="#7DD3C7" stroke="#1F2937" stroke-width="1.4" transform="rotate(300 32 32)"/>
<ellipse cx="32" cy="32" rx="7" ry="20" fill="#7DD3C7" stroke="#1F2937" stroke-width="1.4" transform="rotate(330 32 32)"/>
<circle cx="32" cy="32" r="5" fill="#4DB6AC" stroke="#1F2937" stroke-width="1.4"/>
  </g>
</svg>
