<svg xmlns="http://www.w3.org/2000/svg" viewBox="0 0 64 64" width="64" height="64" role="img" aria-labelledby="title desc">
  <title id="title">Yucca</title>
  <desc id="desc">Yucca/desert accent plant with sword-like leaves.</desc>
  <metadata>{"title": "Yucca", "tags": ["yucca", "desert", "plant", "waterwise"]}</metadata>
  <defs>
    <filter id="softShadow" x="-20%" y="-20%" width="140%" height="140%">
      <feDropShadow dx="0" dy="1.25" stdDeviation="1.25" flood-color="#000000" flood-opacity="0.28"/>
    </filter>
  </defs>
  <g filter="url(#softShadow)" stroke-linecap="round" stroke-linejoin="round">
<path d="M32 36 L36.0 13.3" fill="none" stroke="#5A8F5B" stroke-width="3.1" stroke-linecap="round" stroke-linejoin="round"/>
<path d="M32 36 L48.0 19.5" fill="none" stroke="#5A8F5B" stroke-width="3.1" stroke-linecap="round" stroke-linejoin="round"/>
<path d="M32 36 L54.5 31.2" fill="none" stroke="#5A8F5B" stroke-width="3.1" stroke-linecap="round" stroke-linejoin="round"/>
<path d="M32 36 L53.3 44.6" fill="none" stroke="#5A8F5B" stroke-width="3.1" stroke-linecap="round" stroke-linejoin="round"/>
<path d="M32 36 L44.9 55.1" fill="none" stroke="#5A8F5B" stroke-width="3.1" stroke-linecap="round" stroke-linejoin="round"/>
<path d="M32 36 L32.0 59.0" fill="none" stroke="#5A8F5B" stroke-width="3.1" stroke-linecap="round" stroke-linejoin="round"/>
<path d="M32 36 L19.1 55.1" fill="none" stroke="#5A8F5B" stroke-width="3.1" stroke-linecap="round" stroke-linejoin="round"/>
<path d="M32 36 L10.7 44.6" fill="none" stroke="#5A8F5B" stroke-width="3.1" stroke-linecap="round" stroke-linejoin="round"/>
<path d="M32 36 L9.5 31.2" fill="none" stroke="#5A8F5B" stroke-width="3.1" stroke-linecap="round" stroke-linejoin="round"/>
<path d="M32 36 L16.0 19.5" fill="none" stroke="#5A8F5B" stroke-width="3.1" stroke-linecap="round" stroke-linejoin="round"/>
<path d="M32 36 L28.0 13.3" fill="none" stroke="#5A8F5B" stroke-width="3.1" stroke-linecap="round" stroke-linejoin="round"/>
<circle cx="32" cy="36" r="5" fill="#7FB069" stroke="#1F2937" stroke-width="1.4"/>
<line x1="32" y1="36" x2="32" y2="15" stroke="#6B5B3E" stroke-width="2.2" stroke-linecap="round"/>
<circle cx="32" cy="13" r="3" fill="#F4EAD5" stroke="#1F2937" stroke-width="1"/>
  </g>
</svg>
